<svg viewBox="0 0 128 128" xmlns="http://www.w3.org/2000/svg" fill-rule="evenodd" clip-rule="evenodd" stroke-linejoin="round" stroke-miterlimit="2"><path d="M14.95 68.266h26.879a20.31 20.31 0 001.863 6.661l-16.139 9.722-15.12-11.484a44.751 44.751 0 01-.115-.896l-.051-.47 2.683-3.533z" fill="#e9a614" fill-rule="nonzero"/><path d="M29.286 85.965l15.357-9.25a22.658 22.658 0 001.128 1.676 22.435 22.435 0 001.2 1.475c.223.25.449.497.69.738L36.682 91.582l-7.396-5.617z" fill="#a7853d" fill-rule="nonzero"/><path d="M81.776 99.049l-12.731 16.762c-.13.019-.261.037-.391.054l-20.621-15.662 6.251-15.183c.313.129.635.226.952.338.318.113.632.24.954.335 1.888.563 3.841.846 5.795.846 2.982 0 5.96-.666 8.711-1.971.305-.144.605-.295.904-.455.296-.159.592-.317.882-.491l9.294 15.427z" fill="#e9a614" fill-rule="nonzero"/><path d="M36.138 40.369l11.524 11.524c-.242.241-.451.5-.678.749-.227.249-.466.492-.678.75a20.197 20.197 0 00-4.487 10.837c-.034.335-.039.673-.056 1.01-.017.337-.048.672-.048 1.009H16.483l19.655-25.879z" fill="#5e5135" fill-rule="nonzero"/><path d="M55.127 16.663l6.89 5.232-.001 24.051c-.337 0-.673.017-1.009.035a20.236 20.236 0 00-7.671 1.946c-.304.145-.605.295-.903.455-.296.159-.592.317-.882.492l-9.674-16.061 12.14-15.984c.37-.06.74-.115 1.11-.166z" fill="#a7853d" fill-rule="nonzero"/><path d="M64.035 23.428l15.991 12.145-11.473 11.473a20.732 20.732 0 00-4.519-.984l.001-22.634z" fill="#5e5135" fill-rule="nonzero"/><path d="M106.69 66.246l-19.284 25.39-11.035-11.034c.242-.24.452-.499.678-.749.227-.249.466-.491.678-.749a20.21 20.21 0 004.486-10.839c.034-.335.04-.672.056-1.009.017-.337.048-.672.048-1.009v-.001h24.373z" fill="#a7853d" fill-rule="nonzero"/><path d="M94.423 46.508l17.209 13.07.01.074.008.064-3.427 4.512H82.2a20.643 20.643 0 00-.983-4.518l13.206-13.202z" fill="#5e5135" fill-rule="nonzero"/><path d="M120.913 7.35c-5.444-5.445-14.272-5.445-19.715 0-4.344 4.342-5.211 10.834-2.625 16.047L68.206 53.765c-5.213-2.585-11.705-1.718-16.049 2.624-5.444 5.445-5.443 14.272 0 19.716 5.446 5.445 14.273 5.443 19.718-.001 4.342-4.342 5.209-10.834 2.622-16.049l30.367-30.366c5.215 2.585 11.706 1.718 16.048-2.625 5.445-5.443 5.445-14.27.001-19.714z" fill="#38362e"/><path d="M49.17 50.548c.232-.188.467-.369.704-.545l-.053-.088-15.34-25.466c-.713.465-1.417.945-2.104 1.449a50.057 50.057 0 00-4.301 3.554l21.013 21.013.081.083z" fill="#93d500"/><path d="M49.159 81.958l-.071.072-21.01 21.011c.108.101.215.203.326.301.195.177.395.354.594.527.103.092.204.183.307.272.238.206.478.407.717.607l.194.162a48.235 48.235 0 00.926.744 57.95 57.95 0 00.936.717 50.214 50.214 0 003.931 2.657c.046.03.093.057.14.086.257.155.515.307.774.457l.475.271c.15.087.299.169.45.253.273.149.547.298.822.443l.114.061c.764.399 1.541.771 2.324 1.128l.746-1.811 10.565-25.664.039-.095a20.167 20.167 0 01-3.299-2.199zM74.862 81.947c-.231.187-.466.37-.704.545l.053.088 15.341 25.466a46.76 46.76 0 002.099-1.445 50.683 50.683 0 004.306-3.559L74.944 82.03l-.082-.083z" fill="#4d5a31"/></svg>